PathFileType	4	(X/Y/Z)	C:\Users\Biomechanik\SynologyDrive\AlexP\Athlete_03\Athlete_3_25_03_31\Squat_bar_03\marker_experimental.trc
DataRate	CameraRate	NumFrames	NumMarkers	Units	OrigDataRate	OrigDataStartFrame	OrigNumFrames
200.000000	200.000000	4	55	mm	200.000000	310	497
Frame#	Time	BL			BR			GLAB			RFHD			LFHD			C7			T6			SPINMOL			SPINM2			SPINM3			T12			BELTOL			BELT2			BELT3			SACROL			SACR2			SACR3			LTHOL			LTH2			LTH3			LSHAOL			LSHA2			LSHA3			LHEE			LTOE			LM5			RTHOL			RTH2			RTH3			RSHAOL			RSHA2			RSHA3			RHEE			RTOE			RM5			STRN			XIPH			LACR			LUAOL			LUA2			LUA3			LLAOL			LLA2			LLA3			LWRR			LWRU			RACR			RUAOL			RUA2			RUA3			RLAOL			RLA2			RLA3			RWRR			RWRU			
		X1	Y1	Z1	X2	Y2	Z2	X3	Y3	Z3	X4	Y4	Z4	X5	Y5	Z5	X6	Y6	Z6	X7	Y7	Z7	X8	Y8	Z8	X9	Y9	Z9	X10	Y10	Z10	X11	Y11	Z11	X12	Y12	Z12	X13	Y13	Z13	X14	Y14	Z14	X15	Y15	Z15	X16	Y16	Z16	X17	Y17	Z17	X18	Y18	Z18	X19	Y19	Z19	X20	Y20	Z20	X21	Y21	Z21	X22	Y22	Z22	X23	Y23	Z23	X24	Y24	Z24	X25	Y25	Z25	X26	Y26	Z26	X27	Y27	Z27	X28	Y28	Z28	X29	Y29	Z29	X30	Y30	Z30	X31	Y31	Z31	X32	Y32	Z32	X33	Y33	Z33	X34	Y34	Z34	X35	Y35	Z35	X36	Y36	Z36	X37	Y37	Z37	X38	Y38	Z38	X39	Y39	Z39	X40	Y40	Z40	X41	Y41	Z41	X42	Y42	Z42	X43	Y43	Z43	X44	Y44	Z44	X45	Y45	Z45	X46	Y46	Z46	X47	Y47	Z47	X48	Y48	Z48	X49	Y49	Z49	X50	Y50	Z50	X51	Y51	Z51	X52	Y52	Z52	X53	Y53	Z53	X54	Y54	Z54	X55	Y55	Z55	

311	1.55	254.7602081298828	800.6510009765626	-2243.049560546875	248.5682830810547	858.8817138671875	-222.7814636230468	539.7097778320312	1002.998657226563	-1189.645874023438	484.9858703613281	1024.774291992188	-1128.421142578125	498.3011169433594	1024.732177734375	-1264.584350585938	304.4601440429688	889.6201782226564	-1203.551391601562	178.9526519775391	782.0582885742189	-1211.188354492188	157.9496002197266	762.2091064453126	-1231.949829101562	148.5134887695312	756.0704345703126	-1182.881469726562	116.5954132080078	711.7541503906251	-1220.203369140625	88.79378509521484	668.9390869140626	-1220.5556640625	54.00194549560547	661.3488159179689	-1236.119140625	51.80619049072266	658.0063476562501	-1185.840576171875	15.18307971954346	611.5765991210939	-1216.5478515625	-50.77030563354492	491.5808715820313	-1243.600708007812	-51.52708435058594	489.1155090332032	-1192.071655273438	-59.09109115600586	429.6140441894532	-1220.00830078125	156.3539733886719	379.559295654297	-1509.914916992188	205.3700866699219	323.319305419922	-1536.806640625	208.52734375	373.3651733398439	-1542.121337890625	250.2021026611328	289.8338317871095	-1615.887573242188	188.6782073974609	253.4584197998048	-1580.486450195312	230.2764282226562	233.4647827148438	-1600.588256835938	115.7025756835938	71.19472503662118	-1462.328735351562	317.5911560058594	49.03427124023447	-1537.525390625	238.5062561035156	26.19142723083506	-1619.706787109375	130.5793609619141	368.2748413085938	-916.97119140625	171.5600433349609	426.2156677246094	-879.4541015625	180.7463073730469	377.3482666015626	-880.677978515625	218.7566070556641	306.2380065917969	-803.4647827148438	218.7210998535156	227.347152709961	-804.1632080078125	188.0832061767578	258.0962219238282	-828.4849243164062	95.04438781738281	66.15676879882818	-968.7484130859375	281.5423583984375	46.5476913452149	-871.2876586914062	191.6627655029297	38.33990859985357	-799.2896118164062	417.4818115234375	723.7845458984376	-1206.855590820312	369.8796081542969	583.8514404296876	-1202.14892578125	348.0492858886719	831.7892456054689	-1376.5322265625	221.0675964355469	733.9482421875001	-1470.177001953125	165.0725555419922	701.1223144531251	-1460.452270507812	194.641845703125	680.4123535156251	-1496.430541992188	155.1349182128906	617.8966674804689	-1564.601928710938	225.3513641357422	599.9979248046876	-1598.664672851562	204.8712310791016	645.3837890625001	-1590.321655273438	273.5210571289062	714.2479858398439	-1629.268798828125	291.6749267578125	738.4626464843751	-1555.840209960938	356.4708251953125	828.6712036132814	-1040.825927734375	231.29296875	733.4560546875001	-954.5859375	198.4439544677734	683.7577514648438	-925.6847534179688	177.0768432617188	700.0208129882814	-970.73046875	180.3943328857422	618.7055053710938	-843.11962890625	193.7129211425781	696.7852172851562	-832.7763061523438	224.0625610351562	657.0335693359375	-821.2915649414062	269.2750549316406	737.9033203125	-801.9490356445312	300.3716430664062	763.4608764648438	-871.5582275390625	
312	1.555	254.8463745117188	804.0087280273439	-2242.945068359375	248.6593322753906	862.4512329101562	-222.6850280761718	539.6968994140625	1006.472839355469	-1189.488525390625	484.9742736816406	1028.267700195312	-1128.273071289062	498.281005859375	1028.189208984375	-1264.430297851562	304.4665832519531	893.0742797851564	-1203.373901367188	179.0034332275391	785.4146728515626	-1211.088989257812	158.0330810546875	765.5574951171876	-1231.849487304688	148.5605010986328	759.4304809570314	-1182.777465820312	116.6616744995117	715.1098022460939	-1220.1259765625	88.84731292724609	672.2065429687501	-1220.445678710938	54.00915908813477	664.6851806640626	-1236.01171875	51.81690216064453	661.3409423828126	-1185.726318359375	15.1970911026001	614.9746704101564	-1216.357543945312	-51.14076614379883	495.8847351074219	-1243.450927734375	-51.9094352722168	493.4172973632813	-1191.923706054688	-59.77660751342773	433.9629516601563	-1219.864135742188	155.4819488525391	381.9305114746095	-1509.731323242188	204.1432342529297	325.1116638183595	-1536.298950195312	207.7002716064453	375.1089477539064	-1541.830810546875	249.6481628417969	290.164764404297	-1615.626586914062	188.1703186035156	253.575912475586	-1580.340576171875	229.8708190917969	233.713607788086	-1600.377563476562	115.6138534545898	71.1725616455079	-1462.421508789062	317.5261840820312	49.07987976074228	-1537.615600585938	238.4807586669922	26.14921569824229	-1619.750854492188	129.76171875	370.6504516601563	-916.94384765625	171.2905578613281	428.0472106933594	-879.1802368164062	180.0931701660156	379.1256408691407	-880.725341796875	218.3002014160156	306.4756774902344	-803.6024169921875	218.3700714111328	227.5856170654297	-804.258544921875	187.6282806396484	258.2806701660157	-828.5272216796875	94.89828491210938	66.14834594726568	-968.6253051757812	281.4917297363281	46.60488128662115	-871.1692504882812	191.6017913818359	38.27146911621099	-799.2088012695312	417.3865356445312	727.2072753906251	-1206.663818359375	369.7239074707031	587.4475708007814	-1201.96728515625	348.1257019042969	835.1934204101564	-1376.383056640625	221.0997619628906	737.4049072265626	-1469.99072265625	165.0961608886719	704.6102905273439	-1460.265380859375	194.6436309814453	683.8829345703126	-1496.250366210938	155.1010284423828	621.4011840820314	-1564.434692382812	225.2955474853516	603.4674682617189	-1598.519775390625	204.8417663574219	648.8605957031251	-1590.159545898438	273.5282897949219	717.6749877929689	-1629.129516601562	291.6895751953125	741.8878173828126	-1555.703491210938	356.4552307128906	832.0126953125001	-1040.612060546875	231.2015686035156	736.9139404296876	-954.4632568359375	198.2861785888672	687.24267578125	-925.5477294921875	176.9712982177734	703.4841308593751	-970.6185913085938	180.2319641113281	622.2140502929688	-842.9700317382812	193.6138000488281	700.2877807617188	-832.6439208984375	223.9282379150391	660.5182495117188	-821.156982421875	269.1949462890625	741.359619140625	-801.8429565429688	300.3133850097656	766.8621826171875	-871.4498291015625	
313	1.56	254.9282989501953	807.4743041992189	-2242.833251953125	248.7409210205078	866.1314697265625	-222.581558227539	539.67626953125	1010.055480957031	-1189.311157226562	484.9534912109375	1031.86474609375	-1128.104125976562	498.2546691894531	1031.761962890625	-1264.255859375	304.4638977050781	896.6361083984376	-1203.1923828125	179.0490417480469	788.8735351562501	-1210.987060546875	158.1084899902344	769.0066528320314	-1231.748168945312	148.6006011962891	762.8911743164064	-1182.673217773438	116.7258758544922	718.5598754882814	-1220.05029296875	88.89030456542969	675.5592041015626	-1220.344482421875	54.00864028930664	668.1057739257814	-1235.912475585938	51.81723785400391	664.7612915039064	-1185.62646484375	15.19504356384277	618.4572753906251	-1216.187744140625	-51.48198699951172	500.2871093750001	-1243.313354492188	-52.26279067993164	497.8204345703126	-1191.787719726562	-60.43560791015625	438.4141235351563	-1219.728515625	154.6277618408203	384.3574829101564	-1509.5419921875	202.9107055664062	326.9556274414064	-1535.78857421875	206.8768920898438	376.9011230468751	-1541.534423828125	249.1073150634766	290.4942626953126	-1615.356567382812	187.6723327636719	253.6958465576173	-1580.187255859375	229.4763793945312	233.9633941650391	-1600.158813476562	115.5288314819336	71.15344238281259	-1462.512084960938	317.462646484375	49.12257385253915	-1537.704467773438	238.4544372558594	26.10953903198252	-1619.792236328125	128.9423828125	373.0961914062501	-916.92431640625	171.0274658203125	429.9328918457032	-878.91552734375	179.4349822998047	380.9600219726563	-880.7818603515625	217.8368682861328	306.7231445312501	-803.7614135742188	218.0151672363281	227.8340454101563	-804.367919921875	187.1693572998047	258.4729919433594	-828.58984375	94.75678253173828	66.13739013671881	-968.5054931640625	281.4392395019531	46.66117477416998	-871.0541381835938	191.5426177978516	38.20570373535161	-799.1303100585938	417.291015625	730.7410278320314	-1206.469116210938	369.5747680664062	591.1613159179689	-1201.782958984375	348.1935119628906	838.7088623046876	-1376.229614257812	221.1258850097656	740.9709472656251	-1469.80126953125	165.1097564697266	708.2100219726564	-1460.078979492188	194.644287109375	687.4616699218751	-1496.065307617188	155.0661773681641	625.0114746093751	-1564.265380859375	225.2366790771484	607.0480346679689	-1598.370361328125	204.8045959472656	652.4428710937501	-1589.991943359375	273.5381774902344	721.2095336914064	-1628.982055664062	291.7001953125	745.4226074218751	-1555.56103515625	356.4335021972656	835.4623413085939	-1040.397094726562	231.1062927246094	740.4739990234376	-954.3346557617188	198.1259155273438	690.8282470703125	-925.4027709960938	176.8620452880859	707.0514526367189	-970.4984741210938	180.0658416748047	625.8287353515625	-842.8118286132812	193.5071716308594	703.8945922851562	-832.5042724609375	223.7893218994141	664.1104736328125	-821.013427734375	269.108642578125	744.9249877929688	-801.7280883789062	300.2485046386719	770.371337890625	-871.3328247070312	
314	1.565	255.0051879882812	811.0471191406251	-2242.713623046875	248.8108520507812	869.9201049804688	-222.4708709716796	539.6465454101562	1013.745727539063	-1189.113647460938	484.9217529296875	1035.564331054688	-1127.9140625	498.2216796875	1035.449951171875	-1264.060913085938	304.4516906738281	900.3042602539064	-1203.0087890625	179.0888061523438	792.4335937500001	-1210.882934570312	158.1751556396484	772.5556030273439	-1231.646118164062	148.6340942382812	766.4517822265626	-1182.568481445312	116.7874603271484	722.1033935546876	-1219.97607421875	88.92271423339844	678.9958496093751	-1220.252563476562	54.00285339355469	671.6087646484376	-1235.821899414062	51.80780029296875	668.2662353515626	-1185.541259765625	15.17549324035645	622.0232543945314	-1216.040649414062	-51.79166412353516	504.7833251953126	-1243.188232421875	-52.5862922668457	502.3201599121094	-1191.663818359375	-61.06520462036133	442.9624023437501	-1219.60205078125	153.7961273193359	386.8357543945314	-1509.347412109375	201.677001953125	328.849822998047	-1535.275024414062	206.0613861083984	378.7398986816407	-1541.23193359375	248.5809631347656	290.8226928710939	-1615.077392578125	187.1859588623047	253.819320678711	-1580.025024414062	229.0939483642578	234.214569091797	-1599.931884765625	115.44775390625	71.13694000244149	-1462.60009765625	317.4007873535156	49.16230392456064	-1537.791748046875	238.4277496337891	26.07221221923838	-1619.831298828125	128.1240386962891	375.6086730957032	-916.9136962890625	170.7708435058594	431.8696899414063	-878.6600341796875	178.7735137939453	382.8488769531251	-880.84814453125	217.3663635253906	306.9816589355469	-803.9422607421875	217.6544647216797	228.0935516357422	-804.4899291992188	186.7063446044922	258.6744384765626	-828.6736450195312	94.61994171142578	66.12442016601568	-968.38916015625	281.3853759765625	46.71620941162115	-870.9423828125	191.4851837158203	38.14260864257817	-799.0541381835938	417.1951904296875	734.3845214843751	-1206.272705078125	369.4320678710938	594.9842529296876	-1201.597534179688	348.2511901855469	842.3341674804689	-1376.072875976562	221.1439819335938	744.6443481445314	-1469.609497070312	165.1117401123047	711.9185791015626	-1459.892822265625	194.6422424316406	691.1469116210939	-1495.8759765625	155.0289611816406	628.7255249023439	-1564.094604492188	225.1735229492188	610.7368164062501	-1598.21630859375	204.7588806152344	656.1288452148439	-1589.81982421875	273.5486145019531	724.8498535156251	-1628.827392578125	291.705322265625	749.0648803710939	-1555.41357421875	356.4054565429688	839.0204467773439	-1040.182006835938	231.0073852539062	744.1352539062501	-954.2012939453125	197.9644470214844	694.5140380859375	-925.25146484375	176.7491912841797	710.7219848632814	-970.3714599609375	179.8965454101562	629.5482788085938	-842.6463623046875	193.3921966552734	707.6044311523438	-832.3582763671875	223.6460876464844	667.8093872070312	-820.86181640625	269.0162048339844	748.598388671875	-801.6045532226562	300.1768188476562	773.9882202148438	-871.207763671875	
